<svg xmlns="http://www.w3.org/2000/svg" viewBox="0 0 500 700" width="250" height="350">
<style>
  .card { fill: #f6f1e4; stroke: #c9bfa6; stroke-width: 2; }
  .ink { fill: none; stroke: #4a4538; stroke-width: 2; stroke-linejoin: round; stroke-linecap: round; }
  .animal { fill: #ffffff; stroke: #4a4538; stroke-width: 2; }
  .scarf  { fill: #4b6f9e; stroke: #4a4538; stroke-width: 2; }
  .plant  { fill: #8aa06a; stroke: #4a4538; stroke-width: 1.5; }
  .accent { fill: #b9443a; stroke: #4a4538; stroke-width: 1.5; }
</style>
<rect class="card" x="1" y="1" width="498" height="698" rx="24"/>

<!-- うさぎ：耳を立てて座る。クローバー、野いちご、たんぽぽ -->
<ellipse class="animal" cx="250" cy="430" rx="110" ry="120"/>
<ellipse class="animal" cx="280" cy="290" rx="62" ry="55"/>
<ellipse class="animal" cx="262" cy="180" rx="16" ry="75" transform="rotate(-8 262 180)"/>
<ellipse class="animal" cx="300" cy="180" rx="16" ry="75" transform="rotate(8 300 180)"/>
<path class="scarf" d="M222 330 Q280 365 330 325 L335 345 Q280 385 218 350 Z"/>
<circle class="plant" cx="120" cy="590" r="22"/><circle class="plant" cx="150" cy="575" r="20"/><circle class="plant" cx="135" cy="560" r="18"/>
<circle class="plant" cx="380" cy="600" r="24"/><circle class="plant" cx="405" cy="580" r="18"/>
<circle class="accent" cx="160" cy="620" r="9"/><circle class="accent" cx="350" cy="625" r="9"/>
<circle cx="420" cy="520" r="14" style="fill:#e3b93c;stroke:#4a4538;stroke-width:1.5"/>
</svg>
